<?xml version="1.0" encoding="UTF-8"?>
<!-- Generated by Pixelmator Pro 3.7.1 -->
<svg width="400" height="512" viewBox="0 0 400 512" xmlns="http://www.w3.org/2000/svg">
    <g id="Group">
        <g id="Flame">
            <path id="Back-Flame" fill="#d5d5d5" fill-rule="evenodd" stroke="none" d="M 167.226929 508.945923 C 40.028664 486.969116 4.460383 397.27832 0.378165 341.097748 C -6.580379 245.24115 84.667397 107.387115 72.440445 194.111023 C 61.668625 270.501892 107.88414 289.387268 121.237854 258.651459 C 133.841324 229.651031 54.834663 127.702148 202.367737 5.466583 C 219.206329 -8.484436 225.961075 7.745514 224.421005 15.604279 C 205.694168 111.030579 231.263443 120.279358 270.945221 188.893555 C 301.80838 242.257324 283.381683 275.894867 297.312744 258.739197 C 334.245636 213.262543 298.303711 155.994843 314.740204 151.972046 C 330.655945 148.07663 417.249664 267.467102 396.028625 363.618103 C 369.363708 484.432556 249.809189 505.865845 232.585526 508.951569 C 212.850815 512.490295 193.662552 513.512268 167.226929 508.945923 Z"/>
            <g id="Front-Flame">
                <path id="Path" fill="#ffffff" fill-rule="evenodd" stroke="none" d="M 238.125732 499.017822 C 233.783035 501.254333 172.628479 518.33075 131.664352 477.414734 C 123.774391 469.536133 76.882233 413.432007 134.636841 338.060303 C 137.634811 334.14502 145.448303 333.64679 146.252289 342.739868 C 146.351379 343.863739 144.780212 364.798767 156.554214 372.923645 C 163.65712 377.826904 188.331848 377.628723 180.96846 345.582153 C 177.449539 330.26947 153.51944 285.823242 195.788635 243.664429 C 213.725647 225.772705 205.260986 259.993469 216.582108 282.629913 C 233.092239 315.633301 330.924988 382.956604 276.408966 466.223877 C 263.485565 485.961395 241.709717 497.172058 238.125732 499.017822 Z"/>
            </g>
        </g>
    </g>
</svg>
