<?xml version="1.0" encoding="UTF-8" standalone="no"?>
<!DOCTYPE svg PUBLIC "-//W3C//DTD SVG 1.1//EN" "http://www.w3.org/Graphics/SVG/1.1/DTD/svg11.dtd">
<svg width="100%" height="100%" viewBox="0 0 328 420" version="1.1" xmlns="http://www.w3.org/2000/svg" xmlns:xlink="http://www.w3.org/1999/xlink" xml:space="preserve" xmlns:serif="http://www.serif.com/" style="fill-rule:evenodd;clip-rule:evenodd;stroke-linejoin:round;stroke-miterlimit:2;">
    <g transform="matrix(1,0,0,1,-92.201602,-46)">
        <g transform="matrix(2.32228,0,0,2.32228,-888.695323,-35.305343)">
            <path id="Back-Flame" serif:id="Back Flame" d="M481.456,214.789C436.525,207.026 423.961,175.344 422.519,155.499C420.061,121.639 452.293,72.944 447.974,103.578C444.169,130.562 460.494,137.233 465.211,126.376C469.663,116.132 441.755,80.12 493.869,36.942C499.817,32.014 502.203,37.747 501.659,40.523C495.044,74.231 504.076,77.498 518.093,101.735C528.995,120.585 522.486,132.467 527.407,126.407C540.453,110.343 527.757,90.114 533.563,88.693C539.185,87.317 569.773,129.49 562.277,163.454C552.858,206.13 510.627,213.701 504.543,214.791C497.572,216.041 490.794,216.402 481.456,214.789Z" style="fill:rgb(251,143,103);"/>
        </g>
    </g>
</svg>
