<?xml version="1.0" encoding="UTF-8" standalone="no"?>
<!DOCTYPE svg PUBLIC "-//W3C//DTD SVG 1.1//EN" "http://www.w3.org/Graphics/SVG/1.1/DTD/svg11.dtd">
<svg width="100%" height="100%" viewBox="0 0 154 219" version="1.1" xmlns="http://www.w3.org/2000/svg" xmlns:xlink="http://www.w3.org/1999/xlink" xml:space="preserve" xmlns:serif="http://www.serif.com/" style="fill-rule:evenodd;clip-rule:evenodd;stroke-linejoin:round;stroke-miterlimit:2;">
    <g transform="matrix(1,0,0,1,-179.344478,-241.783694)">
        <g transform="matrix(2.32228,0,0,2.32228,-888.695323,-35.305343)">
            <g id="Front-Flame" serif:id="Front Flame" transform="matrix(1,0,0,1,0,-1.46495)">
                <path d="M506.5,212.747C504.966,213.537 483.364,219.569 468.894,205.116C466.107,202.333 449.543,182.515 469.944,155.891C471.003,154.508 473.763,154.332 474.047,157.544C474.082,157.941 473.527,165.336 477.686,168.206C480.195,169.938 488.911,169.868 486.31,158.548C485.067,153.139 476.614,137.439 491.545,122.547C497.881,116.227 494.891,128.315 498.89,136.311C504.722,147.969 539.28,171.75 520.023,201.163C515.458,208.135 507.766,212.095 506.5,212.747Z" style="fill:rgb(248,225,108);"/>
            </g>
        </g>
    </g>
</svg>
