<?xml version="1.0" encoding="UTF-8" standalone="no"?>
<!DOCTYPE svg PUBLIC "-//W3C//DTD SVG 1.1//EN" "http://www.w3.org/Graphics/SVG/1.1/DTD/svg11.dtd">
<svg width="100%" height="100%" viewBox="0 0 400 512" version="1.1" xmlns="http://www.w3.org/2000/svg" xmlns:xlink="http://www.w3.org/1999/xlink" xml:space="preserve" xmlns:serif="http://www.serif.com/" style="fill-rule:evenodd;clip-rule:evenodd;stroke-linejoin:round;stroke-miterlimit:2;">
    <g transform="matrix(1,0,0,1,-56.321953,-0)">
        <g id="Flame" transform="matrix(2.830969,0,0,2.830969,-1139.438108,-99.115084)">
            <path id="Back-Flame" serif:id="Back Flame" d="M481.456,214.789C436.525,207.026 423.961,175.344 422.519,155.499C420.061,121.639 452.293,72.944 447.974,103.578C444.169,130.562 460.494,137.233 465.211,126.376C469.663,116.132 441.755,80.12 493.869,36.942C499.817,32.014 502.203,37.747 501.659,40.523C495.044,74.231 504.076,77.498 518.093,101.735C528.995,120.585 522.486,132.467 527.407,126.407C540.453,110.343 527.757,90.114 533.563,88.693C539.185,87.317 569.773,129.49 562.277,163.454C552.858,206.13 510.627,213.701 504.543,214.791C497.572,216.041 490.794,216.402 481.456,214.789Z" style="fill:rgb(251,143,103);"/>
            <g id="Front-Flame" serif:id="Front Flame" transform="matrix(1,0,0,1,0,-1.46495)">
                <path d="M506.5,212.747C504.966,213.537 483.364,219.569 468.894,205.116C466.107,202.333 449.543,182.515 469.944,155.891C471.003,154.508 473.763,154.332 474.047,157.544C474.082,157.941 473.527,165.336 477.686,168.206C480.195,169.938 488.911,169.868 486.31,158.548C485.067,153.139 476.614,137.439 491.545,122.547C497.881,116.227 494.891,128.315 498.89,136.311C504.722,147.969 539.28,171.75 520.023,201.163C515.458,208.135 507.766,212.095 506.5,212.747Z" style="fill:rgb(248,225,108);"/>
            </g>
        </g>
    </g>
</svg>
